<svg width="392" height="302" viewBox="0 0 392 302" fill="none" xmlns="http://www.w3.org/2000/svg">
<path d="M-25 -8.05145C-25 -8.05145 381.535 -133.012 381.343 1.00521C381.272 50.5324 360.068 71.4966 322.692 102.594C281.553 136.821 167.822 89.5984 127.589 124.953C90.9116 157.182 126.092 241.683 87.8827 271.959C52.6779 299.855 -25 285.835 -25 285.835V-8.05145Z" fill="#6F4E37"/>
<path d="M-14.1036 298.134C-14.2856 298.104 -14.4402 298.078 -14.5664 298.056V4.96023C-14.3735 4.90149 -14.1025 4.81919 -13.7556 4.71442C-12.9872 4.48232 -11.8467 4.1399 -10.3588 3.6989C-7.38299 2.81689 -3.01787 1.54053 2.53805 -0.0364685C13.65 -3.19049 29.5247 -7.54694 48.5741 -12.3561C86.6746 -21.9747 137.467 -33.4023 188.248 -40.6428C239.041 -47.8851 289.773 -50.9305 327.775 -43.8151C346.775 -40.2575 362.544 -34.1684 373.549 -24.8384C384.533 -15.5255 390.801 -2.96011 390.777 13.6461C390.741 38.3287 385.443 55.8535 375.522 71.0793C365.586 86.327 350.998 99.2987 332.306 114.851C322.147 123.303 307.459 126.761 290.415 127.698C273.61 128.621 254.606 127.091 235.556 125.557L234.774 125.494C215.481 123.941 196.169 122.418 179.164 123.5C162.166 124.582 147.377 128.269 137.192 137.219C127.906 145.379 123.194 156.827 120.727 169.81C118.315 182.504 118.038 196.727 117.762 210.873L117.744 211.82C117.461 226.299 117.13 240.659 114.493 253.288C111.857 265.91 106.931 276.74 97.5057 284.209C88.787 291.118 77.4133 295.449 65.2221 298.049C53.0347 300.647 40.062 301.509 28.1735 301.5C16.2868 301.491 5.49607 300.612 -2.32342 299.735C-6.23275 299.296 -9.39838 298.858 -11.5858 298.53C-12.6794 298.366 -13.5285 298.23 -14.1036 298.134Z" stroke="black"/>
</svg>
